Coordinates
version=1
nRows=5
nColumns=40
inDegrees=yes

Units are S.I. units (second, meters, Newtons, ...)
Angles are in degrees.

endheader
time	pelvis_tilt	pelvis_list	pelvis_rotation	pelvis_tx	pelvis_ty	pelvis_tz	hip_flexion_r	hip_adduction_r	hip_rotation_r	knee_angle_r	knee_angle_r_beta	ankle_angle_r	subtalar_angle_r	mtp_angle_r	hip_flexion_l	hip_adduction_l	hip_rotation_l	knee_angle_l	knee_angle_l_beta	ankle_angle_l	subtalar_angle_l	mtp_angle_l	lumbar_extension	lumbar_bending	lumbar_rotation	arm_flex_r	arm_add_r	arm_rot_r	elbow_flex_r	pro_sup_r	wrist_flex_r	wrist_dev_r	arm_flex_l	arm_add_l	arm_rot_l	elbow_flex_l	pro_sup_l	wrist_flex_l	wrist_dev_l
      6.04000000	     -3.14551755	     -4.63775335	     -2.37565155	      1.02401025	      0.93365116	      0.43565987	     30.16617863	     -6.10023668	     -5.11561785	     67.85668047	     67.85668047	     -1.60523973	    -13.72777911	      0.13425940	     14.60097888	     -5.42836494	     -7.56793077	     22.05879556	     22.05879556	     12.03638543	    -14.88973368	      0.70045701	    -11.44891282	      3.75894122	      0.28990873	      4.88697028	    -14.69297423	     -4.51070163	     25.76428922	     45.71321669	      0.00000000	      0.00000000	      5.48449120	    -13.22521960	      6.95364829	     35.34084404	     45.29264742	      0.00000000	      0.00000000
      6.05271429	     -3.28100852	     -4.66880068	     -2.81929705	      1.02323180	      0.93418437	      0.43562424	     31.13190228	     -5.93137352	     -5.01772018	     66.18992545	     66.18992545	     -1.21863819	    -13.50468402	      0.14327851	     14.23214654	     -5.48773400	     -7.91990902	     21.86564322	     21.86564322	     12.16579807	    -14.97459895	      0.71089667	    -11.52026778	      3.81296790	     -0.14028605	      4.41119732	    -14.83034211	     -4.54800435	     25.56844683	     45.72185579	      0.00000000	      0.00000000	      5.77092149	    -13.37834428	      6.92212622	     35.47694604	     45.30193831	      0.00000000	      0.00000000
      6.06542857	     -3.25419438	     -4.94426931	     -3.29007003	      1.02278949	      0.93544280	      0.43576425	     31.60573697	     -5.51066523	     -5.14716587	     64.04981835	     64.04981835	     -0.96843642	    -13.14422597	      0.04374190	     13.15673732	     -5.75876793	     -8.43994115	     20.72006735	     20.72006735	     12.18152677	    -14.53821317	      0.76375491	    -11.83575979	      4.17945412	      0.07647680	      3.62124358	    -15.09104141	     -4.74403863	     25.02398060	     45.76568824	      0.00000000	      0.00000000	      6.01698437	    -13.43874283	      6.85393470	     36.16236593	     45.32455075	      0.00000000	      0.00000000
      6.07814286	     -3.43997003	     -5.11592074	     -3.71655507	      1.02210202	      0.93601428	      0.43588713	     32.25764098	     -5.17717885	     -5.25346600	     61.76831883	     61.76831883	     -0.71925564	    -12.69266526	      0.09871141	     12.66264943	     -5.94560286	     -8.80911231	     20.17918500	     20.17918500	     12.23467173	    -14.45263745	      0.75789879	    -11.86463043	      4.42852240	     -0.13885670	      3.05152685	    -15.25026870	     -4.88390398	     24.73432087	     45.78971416	      0.00000000	      0.00000000	      6.20748154	    -13.60816719	      6.81891210	     36.51222847	     45.33643446	      0.00000000	      0.00000000
      6.09085714	     -3.39452025	     -5.18349436	     -4.16544911	      1.02165622	      0.93680606	      0.43605009	     32.48205239	     -4.91479480	     -5.29649370	     59.14491903	     59.14491903	     -0.55753109	    -12.18261542	     -0.07458725	     11.78117662	     -6.00381608	     -9.37646645	     19.40634707	     19.40634707	     12.15693037	    -14.19030590	      0.30673444	    -12.14479569	      4.51470115	     -0.05211064	      2.46737479	    -15.39219526	     -5.58784962	     24.27892381	     45.88650847	      0.00000000	      0.00000000	      6.34877351	    -13.79640251	      6.86330312	     37.79858905	     45.35703354	      0.00000000	      0.00000000
